<svg xmlns="http://www.w3.org/2000/svg" viewBox="0 0 64 64">
  <defs>
    <linearGradient id="flame" x1="32" y1="8" x2="32" y2="54" gradientUnits="userSpaceOnUse">
      <stop offset="0" stop-color="#f3a861"/>
      <stop offset="1" stop-color="#c85e2a"/>
    </linearGradient>
  </defs>
  <rect x="0" y="0" width="64" height="64" rx="14" fill="#0e0a07"/>
  <path d="M32,8 C46,20 48,34 40,44 C36,49 34,52 32,54 C30,52 28,49 24,44 C16,34 18,20 32,8 Z" fill="url(#flame)"/>
  <path d="M32,20 C39,27 40,35 35,41 C33,43.5 32,45 32,46 C32,45 31,43.5 29,41 C24,35 25,27 32,20 Z" fill="#ece3d3"/>
</svg>
